<svg width="400" height="250" viewBox="0 0 400 250" xmlns="http://www.w3.org/2000/svg">
  <defs>
    <linearGradient id="bg2" x1="0%" y1="0%" x2="100%" y2="100%">
      <stop offset="0%" style="stop-color:#06b6d4;stop-opacity:1" />
      <stop offset="100%" style="stop-color:#3b82f6;stop-opacity:1" />
    </linearGradient>
  </defs>
  
  <!-- Fondo -->
  <rect width="400" height="250" fill="url(#bg2)" rx="8"/>
  
  <!-- Barra de título -->
  <rect x="0" y="0" width="400" height="40" fill="rgba(255,255,255,0.1)" rx="8"/>
  
  <!-- Botones de ventana -->
  <circle cx="15" cy="20" r="6" fill="#ff5f57"/>
  <circle cx="35" cy="20" r="6" fill="#ffbd2e"/>
  <circle cx="55" cy="20" r="6" fill="#28ca42"/>
  
  <!-- Título del proyecto -->
  <text x="200" y="25" text-anchor="middle" fill="white" font-family="Arial, sans-serif" font-size="14" font-weight="bold">Trabajo Final HTML/CSS</text>
  
  <!-- Contenido principal -->
  <rect x="20" y="60" width="360" height="120" fill="rgba(255,255,255,0.1)" rx="4"/>
  
  <!-- Navegación -->
  <rect x="30" y="75" width="340" height="30" fill="rgba(255,255,255,0.2)" rx="4"/>
  <text x="200" y="92" text-anchor="middle" fill="white" font-family="Arial, sans-serif" font-size="12" font-weight="bold">Navegación Principal</text>
  
  <!-- Secciones -->
  <rect x="30" y="115" width="100" height="50" fill="rgba(255,255,255,0.15)" rx="4"/>
  <text x="80" y="135" text-anchor="middle" fill="white" font-family="Arial, sans-serif" font-size="10">Sección 1</text>
  
  <rect x="150" y="115" width="100" height="50" fill="rgba(255,255,255,0.15)" rx="4"/>
  <text x="200" y="135" text-anchor="middle" fill="white" font-family="Arial, sans-serif" font-size="10">Sección 2</text>
  
  <rect x="270" y="115" width="100" height="50" fill="rgba(255,255,255,0.15)" rx="4"/>
  <text x="320" y="135" text-anchor="middle" fill="white" font-family="Arial, sans-serif" font-size="10">Sección 3</text>
  
  <!-- Footer -->
  <rect x="20" y="200" width="360" height="30" fill="rgba(255,255,255,0.05)" rx="4"/>
  <text x="200" y="218" text-anchor="middle" fill="rgba(255,255,255,0.7)" font-family="Arial, sans-serif" font-size="12">Diseño Moderno y Responsivo</text>
</svg>
