<svg width="400" height="500" viewBox="0 0 400 500" xmlns="http://www.w3.org/2000/svg">
  <defs>
    <linearGradient id="bgGradient" x1="0%" y1="0%" x2="100%" y2="100%">
      <stop offset="0%" style="stop-color:#6366f1;stop-opacity:1" />
      <stop offset="50%" style="stop-color:#ec4899;stop-opacity:1" />
      <stop offset="100%" style="stop-color:#06b6d4;stop-opacity:1" />
    </linearGradient>
    <linearGradient id="screenGradient" x1="0%" y1="0%" x2="100%" y2="100%">
      <stop offset="0%" style="stop-color:#0f0f23;stop-opacity:1" />
      <stop offset="50%" style="stop-color:#1a1a2e;stop-opacity:1" />
      <stop offset="100%" style="stop-color:#16213e;stop-opacity:1" />
    </linearGradient>
    <linearGradient id="hairGradient" x1="0%" y1="0%" x2="100%" y2="100%">
      <stop offset="0%" style="stop-color:#2d3748;stop-opacity:1" />
      <stop offset="100%" style="stop-color:#1a202c;stop-opacity:1" />
    </linearGradient>
    <filter id="glow">
      <feGaussianBlur stdDeviation="3" result="coloredBlur"/>
      <feMerge> 
        <feMergeNode in="coloredBlur"/>
        <feMergeNode in="SourceGraphic"/>
      </feMerge>
    </filter>
  </defs>
  
  <!-- Fondo dinámico -->
  <rect width="400" height="500" fill="url(#bgGradient)" />
  
  <!-- Elementos de código flotantes en el fondo -->
  <g opacity="0.1">
    <text x="50" y="80" fill="white" font-family="monospace" font-size="16" transform="rotate(-15 50 80)">const</text>
    <text x="350" y="120" fill="white" font-family="monospace" font-size="14" transform="rotate(10 350 120)">function</text>
    <text x="80" y="400" fill="white" font-family="monospace" font-size="12" transform="rotate(-5 80 400)">return</text>
    <text x="320" y="450" fill="white" font-family="monospace" font-size="18" transform="rotate(8 320 450)">export</text>
  </g>
  
  <!-- Laptop moderno -->
  <g transform="translate(50, 200)">
    <!-- Base del laptop -->
    <rect x="0" y="80" width="300" height="25" rx="12" fill="#2d3748" />
    
    <!-- Pantalla del laptop -->
    <rect x="15" y="0" width="270" height="170" rx="10" fill="#1a202c" stroke="#4a5568" stroke-width="3"/>
    
    <!-- Contenido de la pantalla -->
    <rect x="25" y="10" width="250" height="150" rx="6" fill="url(#screenGradient)" />
    
    <!-- Código en la pantalla -->
    <g fill="#10b981" font-family="monospace" font-size="9">
      <text x="35" y="28">&lt;div class="portfolio"&gt;</text>
      <text x="45" y="45">  &lt;h1&gt;Carolina Melián&lt;/h1&gt;</text>
      <text x="45" y="62">  &lt;p&gt;Frontend Developer&lt;/p&gt;</text>
      <text x="45" y="79">  &lt;skills&gt;</text>
      <text x="55" y="96">    JavaScript</text>
      <text x="55" y="113">    TypeScript</text>
      <text x="55" y="130">    Angular</text>
      <text x="55" y="147">    React</text>
      <text x="45" y="164">&lt;/skills&gt;</text>
    </g>
    
    <!-- Teclado moderno -->
    <rect x="10" y="100" width="280" height="18" rx="4" fill="#4a5568" />
    
    <!-- Teclas con efecto -->
    <g fill="#718096">
      <rect x="20" y="105" width="10" height="8" rx="2"/>
      <rect x="32" y="105" width="10" height="8" rx="2"/>
      <rect x="44" y="105" width="10" height="8" rx="2"/>
      <rect x="56" y="105" width="10" height="8" rx="2"/>
      <rect x="68" y="105" width="10" height="8" rx="2"/>
      <rect x="80" y="105" width="10" height="8" rx="2"/>
      <rect x="92" y="105" width="10" height="8" rx="2"/>
      <rect x="104" y="105" width="10" height="8" rx="2"/>
      <rect x="116" y="105" width="10" height="8" rx="2"/>
      <rect x="128" y="105" width="10" height="8" rx="2"/>
      <rect x="140" y="105" width="10" height="8" rx="2"/>
      <rect x="152" y="105" width="10" height="8" rx="2"/>
      <rect x="164" y="105" width="10" height="8" rx="2"/>
      <rect x="176" y="105" width="10" height="8" rx="2"/>
      <rect x="188" y="105" width="10" height="8" rx="2"/>
      <rect x="200" y="105" width="10" height="8" rx="2"/>
      <rect x="212" y="105" width="10" height="8" rx="2"/>
      <rect x="224" y="105" width="10" height="8" rx="2"/>
      <rect x="236" y="105" width="10" height="8" rx="2"/>
      <rect x="248" y="105" width="10" height="8" rx="2"/>
      <rect x="260" y="105" width="10" height="8" rx="2"/>
      <rect x="272" y="105" width="10" height="8" rx="2"/>
    </g>
  </g>
  
  <!-- Carolina programando (basado en tus fotos) -->
  <g transform="translate(150, 50)">
    <!-- Cabeza -->
    <circle cx="50" cy="35" r="28" fill="#f7fafc" />
    
    <!-- Cabello corto con flequillo (como en tus fotos) -->
    <path d="M22 15 Q50 8 78 15 Q78 25 75 30 Q50 22 25 30 Q22 25 22 15" fill="url(#hairGradient)" />
    <path d="M25 12 Q50 5 75 12 Q75 20 70 25 Q50 18 30 25 Q25 20 25 12" fill="#1a202c" />
    
    <!-- Flequillo hacia la izquierda -->
    <path d="M30 15 Q45 8 60 15 Q60 20 55 22 Q45 18 35 22 Q30 20 30 15" fill="#2d3748" />
    
    <!-- Ojos marrones cálidos -->
    <ellipse cx="42" cy="32" rx="4" ry="3" fill="#8b4513" />
    <ellipse cx="58" cy="32" rx="4" ry="3" fill="#8b4513" />
    <circle cx="43" cy="31" r="1.5" fill="#000" />
    <circle cx="59" cy="31" r="1.5" fill="#000" />
    
    <!-- Pestañas prominentes -->
    <path d="M38 30 Q42 28 46 30" stroke="#000" stroke-width="1" fill="none"/>
    <path d="M54 30 Q58 28 62 30" stroke="#000" stroke-width="1" fill="none"/>
    
    <!-- Sonrisa amigable -->
    <path d="M40 45 Q50 50 60 45" stroke="#e53e3e" stroke-width="2" fill="none" stroke-linecap="round"/>
    
    <!-- Cuerpo con camiseta negra -->
    <rect x="35" y="63" width="30" height="45" rx="15" fill="#2d3748" />
    
    <!-- Brazos -->
    <rect x="20" y="68" width="15" height="30" rx="7" fill="#f7fafc" />
    <rect x="65" y="68" width="15" height="30" rx="7" fill="#f7fafc" />
    
    <!-- Manos en el teclado -->
    <circle cx="27" cy="98" r="6" fill="#f7fafc" />
    <circle cx="73" cy="98" r="6" fill="#f7fafc" />
    
    <!-- Collar con colgante -->
    <circle cx="50" cy="70" r="2" fill="#c0c0c0" />
    <circle cx="50" cy="75" r="3" fill="#e2e8f0" stroke="#c0c0c0" stroke-width="1"/>
  </g>
  
  <!-- Elementos de código flotantes -->
  <g opacity="0.8">
    <rect x="20" y="30" width="60" height="25" rx="12" fill="rgba(99, 102, 241, 0.2)" stroke="#6366f1" stroke-width="1"/>
    <text x="50" y="45" text-anchor="middle" fill="#6366f1" font-family="monospace" font-size="10" font-weight="bold">const</text>
    
    <rect x="320" y="60" width="70" height="25" rx="12" fill="rgba(236, 72, 153, 0.2)" stroke="#ec4899" stroke-width="1"/>
    <text x="355" y="75" text-anchor="middle" fill="#ec4899" font-family="monospace" font-size="10" font-weight="bold">function</text>
    
    <rect x="30" y="420" width="65" height="25" rx="12" fill="rgba(6, 182, 212, 0.2)" stroke="#06b6d4" stroke-width="1"/>
    <text x="62" y="435" text-anchor="middle" fill="#06b6d4" font-family="monospace" font-size="10" font-weight="bold">return</text>
    
    <rect x="305" y="450" width="70" height="25" rx="12" fill="rgba(16, 185, 129, 0.2)" stroke="#10b981" stroke-width="1"/>
    <text x="340" y="465" text-anchor="middle" fill="#10b981" font-family="monospace" font-size="10" font-weight="bold">export</text>
  </g>
  
  <!-- Iconos de tecnología -->
  <g opacity="0.6">
    <circle cx="80" cy="120" r="4" fill="#10b981" filter="url(#glow)"/>
    <circle cx="320" cy="150" r="4" fill="#3b82f6" filter="url(#glow)"/>
    <circle cx="60" cy="400" r="4" fill="#f59e0b" filter="url(#glow)"/>
    <circle cx="340" cy="380" r="4" fill="#ef4444" filter="url(#glow)"/>
  </g>
  
  <!-- Texto profesional -->
  <text x="200" y="480" text-anchor="middle" fill="white" font-family="Arial, sans-serif" font-size="16" font-weight="bold">
    Carolina Melián - Desarrolladora Frontend
  </text>
  
  <!-- Efecto de partículas -->
  <g opacity="0.3">
    <circle cx="100" cy="100" r="1" fill="white">
      <animate attributeName="cy" values="100;80;100" dur="3s" repeatCount="indefinite"/>
    </circle>
    <circle cx="300" cy="200" r="1" fill="white">
      <animate attributeName="cy" values="200;180;200" dur="4s" repeatCount="indefinite"/>
    </circle>
    <circle cx="150" cy="350" r="1" fill="white">
      <animate attributeName="cy" values="350;330;350" dur="2.5s" repeatCount="indefinite"/>
    </circle>
  </g>
</svg>
